# xmcd
#
# Track frame offsets: 
#        150
#        14256
#        25822
#        57199
#        76464
#        90483
#
# Disc length: 1701 seconds
#
# Revision: 0
# Processed by: cddbd v1.5.1PL0 Copyright (c) Steve Scherf et al.
# Submitted via: ExactAudioCopy v0.95a5
#
DISCID=3a06a306
DTITLE=Jack Bowman - Project Sine
DYEAR=2001
DGENRE=Rock
TTITLE0=Sineloa
TTITLE1=Sight Unseen
TTITLE2=Burnin' Wax
TTITLE3=Government Man
TTITLE4=Young Woman Blues
TTITLE5=Project Sine
EXTD=
EXTT0=
EXTT1=
EXTT2=
EXTT3=
EXTT4=
EXTT5=
PLAYORDER=
